<svg width="334" height="49" viewBox="0 0 334 49" fill="none" xmlns="http://www.w3.org/2000/svg">
<path d="M23.752 48.384C19.3147 48.384 15.304 47.4027 11.72 45.44C8.17867 43.4773 5.384 40.768 3.336 37.312C1.33067 33.8133 0.328 29.9093 0.328 25.6C0.328 21.2907 1.33067 17.408 3.336 13.952C5.384 10.4533 8.2 7.72267 11.784 5.76C15.368 3.79733 19.3787 2.816 23.816 2.816C27.144 2.816 30.216 3.37067 33.032 4.48C35.848 5.58933 38.2373 7.21066 40.2 9.344L37.192 12.352C33.6933 8.81066 29.2773 7.04 23.944 7.04C20.4027 7.04 17.1813 7.85066 14.28 9.472C11.3787 11.0933 9.096 13.312 7.432 16.128C5.81067 18.944 5 22.1013 5 25.6C5 29.0987 5.81067 32.256 7.432 35.072C9.096 37.888 11.3787 40.1067 14.28 41.728C17.1813 43.3493 20.4027 44.16 23.944 44.16C29.32 44.16 33.736 42.368 37.192 38.784L40.2 41.792C38.2373 43.9253 35.8267 45.568 32.968 46.72C30.152 47.8293 27.08 48.384 23.752 48.384ZM61.596 48.32C58.3533 48.32 55.4307 47.5947 52.828 46.144C50.2253 44.6507 48.1773 42.6027 46.684 40C45.1907 37.3973 44.444 34.4533 44.444 31.168C44.444 27.8827 45.1907 24.9387 46.684 22.336C48.1773 19.7333 50.2253 17.7067 52.828 16.256C55.4307 14.8053 58.3533 14.08 61.596 14.08C64.8387 14.08 67.7613 14.8053 70.364 16.256C72.9667 17.7067 74.9933 19.7333 76.444 22.336C77.9373 24.9387 78.684 27.8827 78.684 31.168C78.684 34.4533 77.9373 37.3973 76.444 40C74.9933 42.6027 72.9667 44.6507 70.364 46.144C67.7613 47.5947 64.8387 48.32 61.596 48.32ZM61.596 44.288C63.9853 44.288 66.1187 43.7547 67.996 42.688C69.916 41.5787 71.4093 40.0213 72.476 38.016C73.5427 36.0107 74.076 33.728 74.076 31.168C74.076 28.608 73.5427 26.3253 72.476 24.32C71.4093 22.3147 69.916 20.7787 67.996 19.712C66.1187 18.6027 63.9853 18.048 61.596 18.048C59.2067 18.048 57.052 18.6027 55.132 19.712C53.2547 20.7787 51.7613 22.3147 50.652 24.32C49.5853 26.3253 49.052 28.608 49.052 31.168C49.052 33.728 49.5853 36.0107 50.652 38.016C51.7613 40.0213 53.2547 41.5787 55.132 42.688C57.052 43.7547 59.2067 44.288 61.596 44.288ZM115.312 14.336L100.336 48H95.6635L80.7515 14.336H85.4875L98.0955 43.008L110.832 14.336H115.312ZM121.711 14.336H126.255V48H121.711V14.336ZM124.015 6.976C123.076 6.976 122.287 6.656 121.647 6.016C121.007 5.376 120.687 4.608 120.687 3.712C120.687 2.85867 121.007 2.112 121.647 1.472C122.287 0.831997 123.076 0.511997 124.015 0.511997C124.954 0.511997 125.743 0.831997 126.383 1.472C127.023 2.06933 127.343 2.79466 127.343 3.648C127.343 4.58667 127.023 5.376 126.383 6.016C125.743 6.656 124.954 6.976 124.015 6.976ZM169.619 0.511997V48H165.267V41.344C163.901 43.6053 162.088 45.3333 159.827 46.528C157.608 47.7227 155.091 48.32 152.275 48.32C149.117 48.32 146.259 47.5947 143.699 46.144C141.139 44.6933 139.133 42.6667 137.683 40.064C136.232 37.4613 135.507 34.496 135.507 31.168C135.507 27.84 136.232 24.8747 137.683 22.272C139.133 19.6693 141.139 17.664 143.699 16.256C146.259 14.8053 149.117 14.08 152.275 14.08C155.005 14.08 157.459 14.656 159.635 15.808C161.853 16.9173 163.667 18.56 165.075 20.736V0.511997H169.619ZM152.659 44.288C155.005 44.288 157.117 43.7547 158.995 42.688C160.915 41.5787 162.408 40.0213 163.475 38.016C164.584 36.0107 165.139 33.728 165.139 31.168C165.139 28.608 164.584 26.3253 163.475 24.32C162.408 22.3147 160.915 20.7787 158.995 19.712C157.117 18.6027 155.005 18.048 152.659 18.048C150.269 18.048 148.115 18.6027 146.195 19.712C144.317 20.7787 142.824 22.3147 141.715 24.32C140.648 26.3253 140.115 28.608 140.115 31.168C140.115 33.728 140.648 36.0107 141.715 38.016C142.824 40.0213 144.317 41.5787 146.195 42.688C148.115 43.7547 150.269 44.288 152.659 44.288ZM277.206 47.424C276.966 47.64 276.666 47.808 276.306 47.928C275.958 48.036 275.592 48.09 275.208 48.09C274.32 48.09 273.636 47.85 273.156 47.37C272.676 46.89 272.436 46.212 272.436 45.336V39.612H270.744V38.532H272.436V36.462H273.714V38.532H276.594V39.612H273.714V45.264C273.714 45.828 273.852 46.26 274.128 46.56C274.416 46.848 274.824 46.992 275.352 46.992C275.616 46.992 275.868 46.95 276.108 46.866C276.36 46.782 276.576 46.662 276.756 46.506L277.206 47.424ZM280.756 40.386C281.056 39.75 281.5 39.27 282.088 38.946C282.688 38.622 283.426 38.46 284.302 38.46V39.702L283.996 39.684C283 39.684 282.22 39.99 281.656 40.602C281.092 41.214 280.81 42.072 280.81 43.176V48H279.532V38.532H280.756V40.386ZM289.91 38.46C291.146 38.46 292.094 38.772 292.754 39.396C293.414 40.008 293.744 40.92 293.744 42.132V48H292.52V46.524C292.232 47.016 291.806 47.4 291.242 47.676C290.69 47.952 290.03 48.09 289.262 48.09C288.206 48.09 287.366 47.838 286.742 47.334C286.118 46.83 285.806 46.164 285.806 45.336C285.806 44.532 286.094 43.884 286.67 43.392C287.258 42.9 288.188 42.654 289.46 42.654H292.466V42.078C292.466 41.262 292.238 40.644 291.782 40.224C291.326 39.792 290.66 39.576 289.784 39.576C289.184 39.576 288.608 39.678 288.056 39.882C287.504 40.074 287.03 40.344 286.634 40.692L286.058 39.738C286.538 39.33 287.114 39.018 287.786 38.802C288.458 38.574 289.166 38.46 289.91 38.46ZM289.46 47.082C290.18 47.082 290.798 46.92 291.314 46.596C291.83 46.26 292.214 45.78 292.466 45.156V43.608H289.496C287.876 43.608 287.066 44.172 287.066 45.3C287.066 45.852 287.276 46.29 287.696 46.614C288.116 46.926 288.704 47.082 289.46 47.082ZM301.175 48.09C300.239 48.09 299.399 47.886 298.655 47.478C297.923 47.07 297.347 46.5 296.927 45.768C296.507 45.024 296.297 44.19 296.297 43.266C296.297 42.342 296.507 41.514 296.927 40.782C297.347 40.05 297.923 39.48 298.655 39.072C299.399 38.664 300.239 38.46 301.175 38.46C301.991 38.46 302.717 38.622 303.353 38.946C304.001 39.258 304.511 39.72 304.883 40.332L303.929 40.98C303.617 40.512 303.221 40.164 302.741 39.936C302.261 39.696 301.739 39.576 301.175 39.576C300.491 39.576 299.873 39.732 299.321 40.044C298.781 40.344 298.355 40.776 298.043 41.34C297.743 41.904 297.593 42.546 297.593 43.266C297.593 43.998 297.743 44.646 298.043 45.21C298.355 45.762 298.781 46.194 299.321 46.506C299.873 46.806 300.491 46.956 301.175 46.956C301.739 46.956 302.261 46.842 302.741 46.614C303.221 46.386 303.617 46.038 303.929 45.57L304.883 46.218C304.511 46.83 304.001 47.298 303.353 47.622C302.705 47.934 301.979 48.09 301.175 48.09ZM310.763 43.248L308.531 45.3V48H307.253V34.644H308.531V43.698L314.183 38.532H315.767L311.717 42.402L316.145 48H314.579L310.763 43.248ZM325.921 43.662H318.001C318.073 44.646 318.451 45.444 319.135 46.056C319.819 46.656 320.683 46.956 321.727 46.956C322.315 46.956 322.855 46.854 323.347 46.65C323.839 46.434 324.265 46.122 324.625 45.714L325.345 46.542C324.925 47.046 324.397 47.43 323.761 47.694C323.137 47.958 322.447 48.09 321.691 48.09C320.719 48.09 319.855 47.886 319.099 47.478C318.355 47.058 317.773 46.482 317.353 45.75C316.933 45.018 316.723 44.19 316.723 43.266C316.723 42.342 316.921 41.514 317.317 40.782C317.725 40.05 318.277 39.48 318.973 39.072C319.681 38.664 320.473 38.46 321.349 38.46C322.225 38.46 323.011 38.664 323.707 39.072C324.403 39.48 324.949 40.05 325.345 40.782C325.741 41.502 325.939 42.33 325.939 43.266L325.921 43.662ZM321.349 39.558C320.437 39.558 319.669 39.852 319.045 40.44C318.433 41.016 318.085 41.772 318.001 42.708H324.715C324.631 41.772 324.277 41.016 323.653 40.44C323.041 39.852 322.273 39.558 321.349 39.558ZM329.764 40.386C330.064 39.75 330.508 39.27 331.096 38.946C331.696 38.622 332.434 38.46 333.31 38.46V39.702L333.004 39.684C332.008 39.684 331.228 39.99 330.664 40.602C330.1 41.214 329.818 42.072 329.818 43.176V48H328.54V38.532H329.764V40.386Z" fill="black"/>
<path d="M211.458 24.896C214.402 25.536 216.663 26.816 218.242 28.736C219.863 30.6133 220.674 33.0453 220.674 36.032C220.674 39.872 219.244 42.8373 216.386 44.928C213.57 46.976 209.388 48 203.842 48H183.234V3.2H202.562C207.554 3.2 211.415 4.20266 214.146 6.208C216.919 8.21333 218.306 11.0507 218.306 14.72C218.306 17.1947 217.687 19.3067 216.45 21.056C215.255 22.7627 213.591 24.0427 211.458 24.896ZM187.97 7.104V23.36H202.242C205.868 23.36 208.663 22.6773 210.626 21.312C212.588 19.904 213.569 17.8773 213.569 15.232C213.569 12.5867 212.588 10.5813 210.626 9.216C208.663 7.808 205.868 7.104 202.242 7.104H187.97ZM203.778 44.096C207.788 44.096 210.818 43.4133 212.866 42.048C214.914 40.6827 215.938 38.5493 215.938 35.648C215.938 30.0587 211.884 27.264 203.778 27.264H187.97V44.096H203.778ZM262.076 48L251.836 33.6C250.684 33.728 249.489 33.792 248.252 33.792H236.22V48H231.484V3.2H248.252C253.969 3.2 258.449 4.56533 261.692 7.296C264.934 10.0267 266.556 13.7813 266.556 18.56C266.556 22.0587 265.66 25.024 263.868 27.456C262.118 29.8453 259.601 31.5733 256.316 32.64L267.26 48H262.076ZM248.124 29.76C252.561 29.76 255.953 28.7787 258.3 26.816C260.646 24.8533 261.819 22.1013 261.819 18.56C261.819 14.9333 260.646 12.16 258.3 10.24C255.953 8.27733 252.561 7.296 248.124 7.296H236.22V29.76H248.124Z" fill="#FF3F3F"/>
</svg>
